<svg width="158.9px" height="159.4px" viewBox="0 0 158.9 159.4" fill="none" xmlns="http://www.w3.org/2000/svg">
<style type="text/css">
	.st0{fill:#310A90;}
</style>
<defs>
</defs>
<g id="Logo_uno_1_">
	<path class="st0" d="M39.5,83.1c2.8,18.7,14.2,31.8,30.9,35.5c23.5,5.3,46.5-11.3,48.5-35.2c0.2-3,1.2-3.8,4-3.7
		c10.6,0.1,21.3,0.2,31.9,0c3.6-0.1,4.1,1.3,4,4.5c-1.1,34.5-27.8,66.2-62.1,73.5c-43.5,9.2-85.9-17.8-95.2-60.7
		c-1-4.5-1.8-9.1-1.4-13.8c0.6-2,1.9-2.7,4-2.7c10.5,0,21,0,31.5,0C37.6,80.4,39.2,80.7,39.5,83.1z"/>
	<path class="st0" d="M158.9,0c0,8.9,0,16.7,0,24.5c0,13.5-0.1,27,0.1,40.5c0,3.1-0.7,4.2-4,4.1c-10.8-0.2-21.6-0.1-32.4,0
		c-2.3,0-3.6-0.2-3.5-3.1C120.8,37.4,134.3,16.1,158.9,0z"/>
	<path class="st0" d="M39.5,83.1c-0.9-1.3-2.1-1.8-3.8-1.8c-10.4,0.1-20.9,0.1-31.4,0c-1.8,0-3.1,0.6-4.3,1.8c0-0.9,0-1.8,0-2.7
		c11.3-0.9,22.5-0.2,33.8-0.4c1.9,0,3.8-0.6,5.6,0.5C39.5,81.4,39.5,82.2,39.5,83.1z"/>
	<path class="st0" d="M39.5,80.5c-13.1-0.1-26.3-0.1-39.4-0.2c0.7-1.2,1.8-0.8,2.8-0.8c11.2,0,22.4,0,33.5,0
		C37.5,79.5,38.9,79,39.5,80.5z"/>
	<path class="st0" d="M150.1,95.6"/>
</g>
</svg>